<svg xmlns="http://www.w3.org/2000/svg" width="38" height="42"><path fill-rule="evenodd" fill="#6C7A9B" d="M35.564 21.819h-.203v1.887c0 1.937-1.553 3.514-3.468 3.527-.365 1.505-1.711 2.625-3.312 2.625h-7.145v3.282h3.526c1.922 0 3.503 1.503 3.654 3.407a2.79 2.79 0 0 1 1.941 2.663c0 1.538-1.238 2.79-2.761 2.79-1.522 0-2.761-1.252-2.761-2.79a2.79 2.79 0 0 1 1.948-2.665 2.054 2.054 0 0 0-2.021-1.765h-5.15v1.764a2.792 2.792 0 0 1 1.949 2.666c0 1.538-1.239 2.79-2.761 2.79s-2.761-1.252-2.761-2.79c0-1.253.822-2.314 1.949-2.666V34.78h-5.129a2.053 2.053 0 0 0-2.022 1.771 2.79 2.79 0 0 1 1.927 2.659c0 1.538-1.238 2.79-2.761 2.79-1.522 0-2.76-1.252-2.76-2.79 0-1.257.828-2.323 1.962-2.669.154-1.901 1.734-3.401 3.654-3.401h3.505v-3.282H9.419c-1.601 0-2.947-1.12-3.312-2.625-1.915-.013-3.468-1.59-3.468-3.527v-1.887h-.203C1.093 21.819 0 20.716 0 19.359c0-1.358 1.093-2.461 2.436-2.461h1.949c1.343 0 2.435 1.103 2.435 2.461 0 1.357-1.092 2.46-2.435 2.46h-.122v1.887c0 1.033.825 1.874 1.844 1.886a3.43 3.43 0 0 1 2.987-2.608V7.259c0-4.003 3.223-7.26 7.186-7.26h5.44c3.962 0 7.186 3.257 7.186 7.26v15.725c1.455.14 2.646 1.207 2.987 2.608a1.878 1.878 0 0 0 1.844-1.886v-1.887h-.122c-1.343 0-2.436-1.103-2.436-2.46 0-1.358 1.093-2.461 2.436-2.461h1.949c1.343 0 2.436 1.103 2.436 2.461 0 1.357-1.093 2.46-2.436 2.46zM26.659 39.21c0 .633.51 1.149 1.137 1.149s1.137-.516 1.137-1.149-.51-1.148-1.137-1.148-1.137.515-1.137 1.148zm-16.455-1.148c-.627 0-1.137.515-1.137 1.148 0 .633.51 1.149 1.137 1.149s1.137-.516 1.137-1.149-.51-1.148-1.137-1.148zM4.385 20.179a.818.818 0 0 0 .812-.82.818.818 0 0 0-.812-.821H2.436a.817.817 0 0 0-.812.821c0 .452.364.82.812.82h1.949zM17.863 39.21c0 .633.51 1.149 1.137 1.149s1.137-.516 1.137-1.149-.51-1.148-1.137-1.148-1.137.515-1.137 1.148zm.325-6.07h1.624v-3.282h-1.624v3.282zm10.393-8.531h-6.333a.816.816 0 0 1-.812-.821c0-.453.363-.82.812-.82h5.034V7.259c0-3.098-2.495-5.619-5.562-5.619h-5.44c-3.067 0-5.562 2.521-5.562 5.619v15.709h5.034c.448 0 .812.367.812.82a.817.817 0 0 1-.812.821H9.419c-.985 0-1.787.809-1.787 1.804s.802 1.805 1.787 1.805h19.162c.985 0 1.786-.81 1.786-1.805 0-.995-.801-1.804-1.786-1.804zm6.983-6.071h-1.949a.817.817 0 0 0-.812.821c0 .452.364.82.812.82h1.949a.817.817 0 0 0 .812-.82.817.817 0 0 0-.812-.821zM19 24.609a.817.817 0 0 1-.812-.821.817.817 0 0 1 .812-.82.817.817 0 0 1 .812.82.817.817 0 0 1-.812.821z"/></svg>