<svg xmlns="http://www.w3.org/2000/svg" width="23" height="33"><path fill-rule="evenodd" fill="#6C7A9B" d="M21.061 32.999H7.684a.527.527 0 0 1-.534-.52c0-.289.239-.522.534-.522h13.377c.48 0 .87-.38.87-.847V1.889a.86.86 0 0 0-.87-.848H1.938a.86.86 0 0 0-.869.848V31.11c0 .467.39.847.869.847h4.128c.295 0 .534.233.534.522 0 .287-.239.52-.534.52H1.938C.869 32.999 0 32.152 0 31.11V1.889C0 .847.869-.001 1.938-.001h19.123C22.13-.001 23 .847 23 1.889V31.11c0 1.042-.87 1.889-1.939 1.889zM7.575 22.44a.527.527 0 0 1-.534-.52v-.002c0-.288.239-.521.534-.521.296 0 .535.233.535.521a.528.528 0 0 1-.535.522zm.998 1.788a.527.527 0 0 1-.534-.52v-.002c0-.287.239-.521.534-.521.295 0 .535.234.535.521a.53.53 0 0 1-.535.522zm.412-2.308v-.002c0-.288.239-.521.534-.521.296 0 .535.233.535.521a.528.528 0 0 1-.535.522.527.527 0 0 1-.534-.52zm2.901 8.231c-1.277 0-2.316-1.013-2.316-2.258s1.039-2.258 2.316-2.258 2.317 1.013 2.317 2.258-1.04 2.258-2.317 2.258zm0-3.474c-.687 0-1.247.546-1.247 1.216 0 .671.56 1.216 1.247 1.216.688 0 1.247-.545 1.247-1.216 0-.67-.559-1.216-1.247-1.216zm0 1.729a.52.52 0 0 1-.525-.513.52.52 0 0 1 .525-.513.52.52 0 0 1 .526.513.52.52 0 0 1-.526.513zm2.541-4.177a.528.528 0 0 1-.535-.521c0-.288.239-.522.535-.522.295 0 .534.233.534.52v.002a.527.527 0 0 1-.534.521zm.463-2.309c0-.288.239-.522.534-.522.296 0 .535.232.535.52v.002a.528.528 0 0 1-.535.521.527.527 0 0 1-.534-.521zm1.747 7.259c-.728 0-1.32-.577-1.32-1.286 0-.709.592-1.286 1.32-1.286.727 0 1.319.577 1.319 1.286 0 .709-.592 1.286-1.319 1.286zm0-1.53a.247.247 0 0 0-.25.244c0 .134.112.244.25.244s.25-.11.25-.244a.247.247 0 0 0-.25-.244zm1.143-3.941c0-.288.239-.522.534-.522.296 0 .535.233.535.52v.002a.528.528 0 0 1-.535.521.527.527 0 0 1-.534-.521zm1.734 5.471c-.728 0-1.32-.577-1.32-1.286 0-.709.592-1.286 1.32-1.286.727 0 1.319.577 1.319 1.286 0 .709-.592 1.286-1.319 1.286zm0-1.53a.248.248 0 0 0-.251.244c0 .134.113.244.251.244.137 0 .25-.11.25-.244a.247.247 0 0 0-.25-.244zm-2.146-6.251c.295 0 .535.232.535.52v.002a.528.528 0 0 1-.535.521.527.527 0 0 1-.534-.521c0-.288.239-.522.534-.522zm-.997 2.831a.528.528 0 0 1-.535-.521c0-.288.239-.522.535-.522.295 0 .534.233.534.52v.002a.527.527 0 0 1-.534.521zm-5.854-.001a.527.527 0 0 1-.535-.52v-.002c0-.287.24-.521.535-.521.295 0 .535.234.535.521a.53.53 0 0 1-.535.522zm1.02-1.787a.528.528 0 0 1-.535-.521c0-.288.239-.522.535-.522.295 0 .534.232.534.52v.002a.527.527 0 0 1-.534.521zm1.943-1.043c.296 0 .535.232.535.52v.002a.528.528 0 0 1-.535.521.527.527 0 0 1-.534-.521c0-.288.239-.522.534-.522zm-.997 2.831a.528.528 0 0 1-.535-.521c0-.288.239-.522.535-.522.295 0 .534.233.534.52v.002a.527.527 0 0 1-.534.521zm-6.851-2.832c.295 0 .534.233.534.521a.528.528 0 0 1-.534.522.527.527 0 0 1-.535-.52v-.002c0-.288.239-.521.535-.521zm-.947 2.831a.527.527 0 0 1-.534-.52v-.002c0-.287.239-.521.534-.521.296 0 .535.234.535.521a.528.528 0 0 1-.535.522zm15.613-4.66H2.746a.528.528 0 0 1-.534-.521c0-.288.239-.521.534-.521h17.552c.296 0 .535.233.535.521a.528.528 0 0 1-.535.521zM18.407 3.794c.295 0 .534.234.534.522 0 .288-.239.52-.534.52h-.07a.527.527 0 0 1-.535-.52c0-.288.239-.522.535-.522h.07zm-2.043-1.231c0-.288.24-.521.535-.521h3.399c.296 0 .535.233.535.521v14.022a.528.528 0 0 1-.535.521H2.746a.527.527 0 0 1-.534-.521V2.563c0-.288.239-.521.534-.521h12.537c.296 0 .535.233.535.521a.528.528 0 0 1-.535.521H3.281v2.463h16.483V3.084h-2.865a.528.528 0 0 1-.535-.521zM3.281 16.064h16.483V13.6H3.281v2.464zm0-3.506h16.483v-2.463H3.281v2.463zm0-5.969v2.464h16.483V6.589H3.281zm15.126 1.753h-.07a.528.528 0 0 1-.535-.521c0-.288.239-.521.535-.521h.07c.295 0 .534.233.534.521a.527.527 0 0 1-.534.521zm0 3.506h-.07a.528.528 0 0 1-.535-.521c0-.288.239-.521.535-.521h.07c.295 0 .534.233.534.521a.527.527 0 0 1-.534.521zm0 3.505h-.07a.528.528 0 0 1-.535-.521c0-.288.239-.521.535-.521h.07c.295 0 .534.233.534.521a.527.527 0 0 1-.534.521zM6.095 23.708v-.002c0-.287.239-.521.534-.521.295 0 .535.234.535.521a.53.53 0 0 1-.535.522.527.527 0 0 1-.534-.52z"/></svg>