<svg xmlns="http://www.w3.org/2000/svg" width="35" height="27"><path fill-rule="evenodd" fill="#6C7A9B" d="M32.982 26.999H7.93a.518.518 0 0 1-.512-.525c0-.29.229-.525.512-.525h25.052c.547 0 .992-.456.992-1.016V12.852c0-.561-.445-1.017-.992-1.017h-2.547a.52.52 0 0 1-.513-.525c0-.29.23-.525.513-.525h2.547c1.113 0 2.018.927 2.018 2.067v12.081c0 1.139-.905 2.066-2.018 2.066zM27.79 8.112H6.635c-.684 0-1.24.57-1.24 1.271v.14a.52.52 0 0 1-.513.525.52.52 0 0 1-.513-.525v-.14c0-1.28 1.017-2.321 2.266-2.321H27.79c.684 0 1.24-.57 1.24-1.27 0-.701-.556-1.27-1.24-1.27H6.284c-1.249 0-2.266-1.042-2.265-2.321V.524c0-.29.229-.525.512-.525.284 0 .513.235.513.525v1.677c0 .7.556 1.271 1.24 1.271H27.79c1.25 0 2.266 1.04 2.266 2.32 0 1.279-1.016 2.32-2.266 2.32zm4.281 5.147c.284 0 .513.235.513.525V24c0 .29-.229.525-.513.525h-5.216a.52.52 0 0 1-.513-.525V13.784c0-.29.23-.525.513-.525h5.216zm-2.132 10.216h1.62V21.12h-1.62v2.355zm0-3.406h1.62v-2.354h-1.62v2.354zm0-3.405h1.62v-2.355h-1.62v2.355zm-2.571 6.811h1.546V21.12h-1.546v2.355zm0-3.406h1.546v-2.354h-1.546v2.354zm0-3.405h1.546v-2.355h-1.546v2.355zM2.416 24V13.784c0-.29.229-.525.512-.525h21.156c.283 0 .512.235.512.525V24c0 .29-.229.525-.512.525H2.928A.518.518 0 0 1 2.416 24zm7.096-9.691H6.914v2.355h2.598v-2.355zm-4.001 3.406v2.354h2.365v-2.354H5.511zm3.39 0v2.354h2.598v-2.354H8.901zm4.234-3.406h-2.598v2.355h2.598v-2.355zm-.611 3.406v2.354h2.598v-2.354h-2.598zm4.234-3.406H14.16v2.355h2.598v-2.355zm-.611 3.406v2.354h2.598v-2.354h-2.598zm4.234-3.406h-2.597v2.355h2.597v-2.355zm3.19 0h-2.164v2.355h2.164v-2.355zm0 3.406h-3.8v2.354h3.8v-2.354zm-2.164 5.76h2.164V21.12h-2.164v2.355zm-3.623 0h2.597V21.12h-2.597v2.355zm-7.247 0h6.221V21.12h-6.221v2.355zm-3.623 0h2.598V21.12H6.914v2.355zm-3.473 0h2.448V21.12H3.441v2.355zm0-3.406h1.045v-2.354H3.441v2.354zm0-3.405h2.448v-2.355H3.441v2.355zm25.487-5.354a.52.52 0 0 1-.513.525H2.017c-.547 0-.992.456-.992 1.017v12.081c0 .56.445 1.016.992 1.016h3.847c.283 0 .512.235.512.525 0 .29-.229.525-.512.525H2.017C.905 26.999 0 26.072 0 24.933V12.852c0-1.14.905-2.067 2.017-2.067h26.398a.52.52 0 0 1 .513.525z"/></svg>