<svg xmlns="http://www.w3.org/2000/svg" width="31" height="28"><path fill-rule="evenodd" fill="#6C7A9B" d="M26.667-.001H4.333C2.24-.001 0 1.15 0 4.374v15.117c0 3.224 2.24 4.376 4.333 4.376H12.6v2.786h-1.373a.67.67 0 0 0-.667.673.67.67 0 0 0 .667.673h8.8a.67.67 0 0 0 .666-.673.67.67 0 0 0-.666-.673H18.4v-2.786h8.267c3.193 0 4.333-2.262 4.333-4.376V4.374c0-3.224-2.24-4.375-4.333-4.375zm-9.6 26.654h-3.134v-2.786h3.134v2.786zm12.6-7.162c0 .909-.294 3.029-3 3.029H4.333c-.9 0-3-.295-3-3.029v-.962h28.334v.962zm0-2.302H1.333V4.401c0-2.732 2.1-3.029 3-3.029h22.334c.9 0 3 .297 3 3.029v12.788z"/></svg>