<svg xmlns="http://www.w3.org/2000/svg" width="25" height="36"><path fill-rule="evenodd" fill="#6C7A9B" d="M24.995 23.272l-.003-.08-.001-.034-.01-.228-.006-.089-.003-.044a14.381 14.381 0 0 0-.014-.207l-.009-.091-.007-.071a9.326 9.326 0 0 0-.017-.174l-.012-.1-.006-.053-.024-.182-.016-.111-.005-.032a6.778 6.778 0 0 0-.03-.19l-.021-.124-.003-.017-.035-.187-.028-.141-.041-.187-.031-.136a10.44 10.44 0 0 0-.132-.511l-.005-.018-.031-.11-.059-.193-.038-.121a9.045 9.045 0 0 0-.066-.196l-.011-.034-.027-.079a7.087 7.087 0 0 0-.075-.204l-.012-.033-.026-.07a13.73 13.73 0 0 0-.085-.215l-.035-.087a13.314 13.314 0 0 0-.103-.24l-.008-.019a11.818 11.818 0 0 0-.459-.932c-.733-1.502-1.132-2.959-1.2-4.357a.86.86 0 0 0 .003-.071c-.15-3.752 2.163-5.967 2.331-6.121v-.001l.008-.007.001-.001a.573.573 0 0 0 .135-.175.566.566 0 0 0-.072-.612 14.553 14.553 0 0 0-.915-.99c-2.277-2.256-5.203-3.881-8.118-4.493a.577.577 0 0 0-.48.115.567.567 0 0 0-.212.441v2.661h-.916v-2.57c0-.856-.703-1.552-1.566-1.552a1.56 1.56 0 0 0-1.566 1.551v2.571h-.916V1.46a.564.564 0 0 0-.212-.441.58.58 0 0 0-.481-.115C6.216 1.557 3.094 3.362.761 5.856a14.436 14.436 0 0 0-.468.531.562.562 0 0 0 .062.786c.024.022 2.496 2.257 2.341 6.13a.458.458 0 0 0 .003.074c-.068 1.398-.468 2.853-1.2 4.355a11.825 11.825 0 0 0-.307.598v.002a9.607 9.607 0 0 0-.134.291l-.026.059-.102.239-.024.059-.012.03-.085.214-.027.074-.012.031c-.025.067-.05.134-.073.202l-.029.082-.011.034-.066.195-.038.122-.058.192-.036.127a6.706 6.706 0 0 0-.086.323 5.727 5.727 0 0 0-.046.188l-.032.135-.04.191-.028.137-.035.188-.001.008a5.787 5.787 0 0 0-.053.324l-.004.023-.017.12c-.009.06-.016.12-.024.182l-.005.042-.013.11a9.548 9.548 0 0 0-.017.176l-.006.061-.01.1-.012.179-.005.065-.006.095a7.797 7.797 0 0 0-.009.216l-.002.051-.003.074a12.576 12.576 0 0 0 .19 2.535c.036.201.078.405.125.606 1.281 5.499 6.157 9.44 11.857 9.583a11.548 11.548 0 0 0 .645.001 12.56 12.56 0 0 0 8.083-3.214 12.35 12.35 0 0 0 3.995-7.59 12.576 12.576 0 0 0 .095-1.92zM12.082 1.55c0-.228.187-.414.418-.414.231 0 .418.186.418.414v2.571h-.836V1.55zm-2.064 3.707h4.964v1.079h-4.964V5.257zm0 2.216h4.964v1.079h-4.964V7.473zm0 2.216h4.964v1.079h-4.964V9.689zM1.514 6.725l.089-.096a16.332 16.332 0 0 1 3.15-2.609 15.012 15.012 0 0 1 4.118-1.838v10.575H3.849a9.3 9.3 0 0 0-2.335-6.032zm10.412 28.123c-5.055-.25-9.345-3.789-10.488-8.693a11.362 11.362 0 0 1-.291-2.54 10.832 10.832 0 0 1 .007-.368l.002-.06.009-.196.005-.077.005-.07a8.041 8.041 0 0 1 .019-.245l.006-.064a7.573 7.573 0 0 1 .027-.252l.006-.044c.006-.056.013-.111.021-.166l.015-.104.004-.025.027-.173.021-.12.001-.008.032-.171.025-.127.037-.17.029-.124.041-.17.031-.121.047-.172.033-.116.053-.175.035-.11.059-.177.012-.034.024-.07c.021-.062.044-.123.067-.184l.013-.035.022-.059.077-.195.032-.08c.03-.073.061-.146.094-.22l.022-.051c.039-.088.08-.175.121-.262l.006-.014c.086-.18.18-.362.28-.544l.012-.024c.781-1.598 1.156-3.054 1.275-4.345h5.643a.57.57 0 0 0 .574-.568v-1.421h1.908v12.79a2.02 2.02 0 0 0-1.462 1.934c0 .915.618 1.689 1.462 1.935v6.285zm.574-7.339a.885.885 0 0 1-.888-.88c0-.486.398-.881.888-.881s.888.395.888.881c0 .485-.398.88-.888.88zm11.261-2.461c-.688 5.361-5.256 9.528-10.687 9.8v-6.285a2.021 2.021 0 0 0 1.462-1.934c0-.915-.618-1.689-1.462-1.935V11.905h1.908v1.421a.57.57 0 0 0 .574.568h1.636a.57.57 0 0 0 .574-.568.571.571 0 0 0-.574-.569h-1.063V2.182c2.402.646 4.776 2.016 6.689 3.859.198.192.392.388.579.588l.089.096a9.3 9.3 0 0 0-2.335 6.032h-2.174a.571.571 0 0 0-.574.569.57.57 0 0 0 .574.568h2.221c.12 1.29.495 2.746 1.276 4.345l.012.024c.098.178.191.359.277.538l.006.013c.042.089.083.178.124.271l.022.05c.032.072.063.145.093.218l.033.08.077.196.022.057.013.036.067.184.036.104.059.177.035.11.053.176.027.097.006.018a7.465 7.465 0 0 1 .077.293c.015.056.029.113.042.17l.029.125.036.17.026.127.031.17.003.016.02.112.027.173.005.033.014.097.021.165.007.053.01.086.016.157.007.072.007.076.013.188.003.051.005.07c.004.069.006.138.009.21l.001.04.003.061a11.219 11.219 0 0 1-.087 1.745z"/></svg>